<svg width="32" height="35" viewBox="0 0 32 35" fill="none" xmlns="http://www.w3.org/2000/svg">
<g clip-path="url(#clip0_127_433)">
<path d="M31.4938 13.2162C30.0288 7.37941 25.5116 2.68463 19.8349 1.22508C14.1582 -0.234468 7.99246 1.66954 4.08568 6.23743C-0.736401 11.8204 -1.34683 20.1949 2.55994 26.5392C2.25438 28.8231 2.0102 31.107 1.70534 33.391C1.58325 34.2161 2.55994 34.7867 3.23177 34.596C5.36794 33.9616 7.5655 33.391 9.70237 32.7558C15.5011 35.2298 22.2166 34.0885 26.8559 29.6468C31.1896 25.5226 32.9603 19.0522 31.4952 13.2154H31.4945L31.4938 13.2162ZM27.2208 25.461C23.5582 31.044 16.3551 33.138 10.4342 30.3465H10.3728C10.1286 30.2196 9.82306 30.1565 9.4575 30.2196C7.74828 30.7271 6.03907 31.1709 4.32985 31.6784C4.51263 30.1558 4.69611 28.6969 4.87959 27.1743C4.94099 26.6668 5.06237 26.0954 4.8182 25.5879C4.63542 25.2703 4.39125 24.9535 4.20777 24.5728C3.78081 23.8115 3.41385 22.9864 3.10899 22.162C2.13229 19.2436 2.0709 16.0076 2.9869 13.09C4.57403 7.95075 9.09124 4.0811 14.2189 3.44667C19.5293 2.68536 24.8404 5.34996 27.587 9.98093C30.395 14.7388 30.2116 20.8293 27.2208 25.461Z" fill="white"/>
<path d="M24.4732 19.4976L21.7259 17.2775C20.8713 16.58 19.7111 16.7061 18.9786 17.4675L18.1847 18.2926C17.5742 17.9119 17.0252 17.4675 16.4755 16.9599C15.9871 16.4524 15.5602 15.8179 15.1932 15.1835L15.9871 14.3584C16.7196 13.5971 16.781 12.392 16.1699 11.5031L14.0337 8.58473C13.6068 7.9503 12.9349 7.56965 12.2024 7.56965C11.4699 7.50584 10.7374 7.82342 10.249 8.33096L7.86869 10.8049C6.52573 12.2006 6.22086 14.3577 7.07477 16.1341C8.23425 18.418 9.69929 20.4482 11.4085 22.2246C13.1177 24.001 15.1325 25.5236 17.2687 26.7287C17.9398 27.1093 18.6116 27.2362 19.2835 27.2362C20.3822 27.2362 21.5424 26.7925 22.3356 25.9036L24.716 23.4296C25.2043 22.9221 25.5099 22.1608 25.4485 21.3995C25.4485 20.6382 25.0822 19.9406 24.4718 19.4962L24.4732 19.4976ZM23.0081 21.6547L20.6278 24.1286C20.0174 24.763 19.1014 24.8899 18.3688 24.5093C16.4155 23.4304 14.6449 22.0984 13.0584 20.4489C11.472 18.7994 10.1897 16.9599 9.15164 14.9297C8.78538 14.1684 8.90747 13.2172 9.51791 12.582L11.8983 10.1081H11.9596C12.0006 10.1081 12.021 10.1294 12.021 10.1719L13.9744 12.8365L13.1805 13.5978C12.5701 14.2322 12.3866 15.2473 12.8142 16.0717C13.3026 17.0868 13.9737 17.975 14.7062 18.7363C15.4388 19.4976 16.2934 20.1951 17.2701 20.7027C18.064 21.1464 18.9793 20.9565 19.5897 20.322L20.4443 19.4338L22.9475 21.464C22.9475 21.464 23.0088 21.464 23.0088 21.5278V21.6547H23.0081Z" fill="white"/>
</g>
<defs>
<clipPath id="clip0_127_433">
<rect width="32" height="33.8901" fill="white" transform="translate(0 0.743164)"/>
</clipPath>
</defs>
</svg>
